HIERARCHY
ROOT Spine
{
    OFFSET 0.0 0.0 -0.0
    CHANNELS 6 Xposition Yposition Zposition Zrotation Xrotation Yrotation
    JOINT ShoulderCenter
    {
        OFFSET 0.0 20.31477928161621 0.0
        CHANNELS 3 Zrotation Xrotation Yrotation
        JOINT LeftShoulder
        {
            OFFSET 14.495670318603516 0.0 0.0
            CHANNELS 3 Zrotation Xrotation Yrotation
            JOINT LeftElbow
            {
                OFFSET 21.82846450805664 0.0 0.0
                CHANNELS 3 Zrotation Xrotation Yrotation
                JOINT LeftHand
                {
                    OFFSET 24.65749740600586 0.0 0.0
                    CHANNELS 3 Zrotation Xrotation Yrotation
                    End Site
                    {
                        OFFSET 9.862998962402344 0.0 0.0
                    }
                }
            }
        }
        JOINT RightShoulder
        {
            OFFSET -14.495670318603516 0.0 0.0
            CHANNELS 3 Zrotation Xrotation Yrotation
            JOINT RightElbow
            {
                OFFSET -21.82846450805664 0.0 0.0
                CHANNELS 3 Zrotation Xrotation Yrotation
                JOINT RightHand
                {
                    OFFSET -24.65749740600586 0.0 0.0
                    CHANNELS 3 Zrotation Xrotation Yrotation
                    End Site
                    {
                        OFFSET -9.862998962402344 0.0 0.0
                    }
                }
            }
        }
        End Site
        {
            OFFSET 0.0 8.1259126663208 0.0
        }
    }
    JOINT LeftHip
    {
        OFFSET 19.047157530746595 -19.047157530746595 0.0
        CHANNELS 3 Zrotation Xrotation Yrotation
        JOINT LeftKnee
        {
            OFFSET 0.0 -28.45703887939453 0.0
            CHANNELS 3 Zrotation Xrotation Yrotation
            JOINT LeftFoot
            {
                OFFSET 0.0 -35.003265380859375 0.0
                CHANNELS 3 Zrotation Xrotation Yrotation
                End Site
                {
                    OFFSET 0.0 0.0 14.00130558013916
                }
            }
        }
    }
    JOINT RightHip
    {
        OFFSET -19.047157530746595 -19.047157530746595 0.0
        CHANNELS 3 Zrotation Xrotation Yrotation
        JOINT RightKnee
        {
            OFFSET 0.0 -28.45703887939453 0.0
            CHANNELS 3 Zrotation Xrotation Yrotation
            JOINT RightFoot
            {
                OFFSET 0.0 -35.003265380859375 0.0
                CHANNELS 3 Zrotation Xrotation Yrotation
                End Site
                {
                    OFFSET 0.0 0.0 14.00130558013916
                }
            }
        }
    }
}
MOTION
Frames: 12
Frame Time: 0.03333333333333333
-3.217421770095825 7.724588394165039 -355.04949951171875 -3.584894471385537 35.029255141864574 7.7751754706457925 -1.1909212167024032e-07 2.3717036744215422e-07 173.09710500428122 -78.71333107533975 -29.785981489339644 3.056611283226701 -3.835926761246789e-06 3.6584379906233184e-06 20.342714906752214 1.987846675914698e-15 -1.1034765745125397e-31 -6.3611093629270335e-15 67.03922191062037 -7.1937981901875325 -52.54113366978392 1.557435555111975e-06 -5.39439642970698e-07 -148.70923064897545 6.3611093629270335e-15 8.827812596100317e-32 1.5902773407317584e-15 6.204019045337101 -24.620923003486226 66.4487530646595 -9.632613445083638 3.146483129824703 -6.059851293772965 2.981770013872048e-16 3.975693351829397e-16 -1.7207297788386608e-15 -1.1829258830378762 -21.851660208361988 -44.71903499296437 10.113256747298648 -5.877712021025258 -10.564982131874833 1.987846675914698e-16 -5.0540089203748156e-33 -2.9134377843874794e-15
-2.992526054382324 7.735762596130371 -355.6471252441406 -4.162491503638722 37.33944350474701 11.576662572561974 1.4090381158500995e-07 -1.5332117114111729e-06 171.64769596823854 -79.6278165290734 -25.055024193356857 3.1695349153197756 1.7084180552532582e-06 -1.0470858615833443e-06 21.71227773570864 8.348956038841732e-15 -2.3173008064763334e-31 -3.1805546814635168e-15 66.92884063830027 -6.345298044615364 -60.41545205347613 4.913200031595235e-06 8.530549792009433e-07 -144.7034797944901 0.0 3.0811623476677818e-15 0.0 2.9816617725070036 -37.503678195661756 72.4467632723806 2.7575420017498313 6.083386209614611 -8.544875530562129 -3.607851144011702e-32 -5.963540027744094e-16 -6.932615282252509e-15 -4.017328554829712 -33.41837681887413 -71.28929523008509 2.3953541837385637 3.336747819434739 4.518208324492883 -3.975693351829396e-16 -9.939233379573489e-17 -1.7331538205631272e-15
-2.963860034942627 7.586071491241455 -355.5108947753906 -4.037835864974936 37.2891987983601 9.405755628860032 -7.803340598269051e-08 1.4314253863917317e-06 174.80755944494916 -80.40312851796966 -22.771199653714262 3.4097071791770355 4.286592912975487e-06 -1.387329446392965e-07 19.568923316192798 -1.987846675914698e-15 -1.1034765745125397e-31 6.3611093629270335e-15 70.05088047655062 -5.899926587418913 -61.49148018834773 4.038215737390299e-06 1.2140769957251259e-06 -142.80522662151796 2.2069531490250793e-32 -1.5902773407317584e-15 1.5902773407317584e-15 5.067565195091637 -30.624482622209314 70.32715039586871 -4.832463493295108 3.917768508922189 -6.8782723393679674 -3.1724951517235514e-32 -3.9756933518293955e-16 -9.144094709207609e-15 -2.625579470308398 -28.11977363954919 -59.78857193015353 7.888566135197565 0.08332178467286121 0.13509384653717127 5.215650996719426e-32 -7.951386703658792e-16 7.516545243302452e-15
-2.9165358543395996 7.518315315246582 -355.42449951171875 -3.8876326573920914 37.119159950767205 10.045475267992112 -3.929721219017415e-07 -4.045025373344287e-06 174.5475872378433 -80.62578780654209 -23.24279867499481 3.10853764462766 -4.229254980440093e-06 -3.873144033748166e-07 20.304211188439105 -1.1927080055488188e-15 3.1805546814635168e-15 3.1805546814635168e-15 70.13311310614081 -6.011396204849831 -65.59454338383185 4.434575258787934e-06 1.6013667621131176e-06 -136.873375877552 0.0 0.0 0.0 4.715911377166488 -29.711999560433167 68.9958890042377 -5.989881033161767 3.70502917975563 -6.446383085272804 0.0 0.0 2.3295078233375362e-15 -3.2825557207292646 -27.372881214282646 -60.049734881906474 8.295758660296503 0.06691579409108529 0.11110991816789195 1.9878466759146977e-16 -2.133675407748856e-33 -1.2299801307222192e-15
-2.8710579872131348 7.72782564163208 -355.1166076660156 -3.967015457869976 36.84231749264492 23.244320248220546 7.619565326960656e-07 3.3023468499501577e-06 161.68349991696516 -80.91748290719724 -21.253506312864687 2.6228226053351995 -3.738653857686451e-06 3.69092411925394e-07 20.848506772488168 1.987846675914698e-15 0.0 0.0 70.11368029178799 -5.524365064363102 -70.09943051749109 2.6999400951394445e-06 5.409906714753309e-07 -132.44898924866334 -4.4139062980501586e-32 -3.1805546814635176e-15 -1.5902773407317588e-15 -2.5073567161176937 -30.09960734620645 56.26925573637856 -5.674852248256316 4.179761839004799 -6.865150122205177 0.0 0.0 -3.981905372691629e-15 -6.901508624101774 -19.60333935276827 -43.623406315925905 9.676548592852777 -10.011330638927872 -19.99232273257707 -3.975693351829396e-16 -9.939233379573489e-17 -2.33571984419977e-15
-2.9451348781585693 7.730902671813965 -354.99908447265625 -3.2654720905210395 36.69428986607485 20.121918924796844 -9.87907630125849e-07 -5.565647009177668e-07 164.89680937139937 -80.54392083824696 -19.785211523029822 2.9727481989544913 -2.406815390920107e-06 1.307755126157117e-06 21.278749347029816 3.975693351829396e-16 1.1034765745125397e-32 3.1805546814635168e-15 68.98764381372429 -6.973482211680712 -70.42516871507445 5.144992063580753e-07 1.4007115301372745e-06 -133.05843116631115 0.0 0.0 0.0 -1.2459533944286432 -28.951552039851567 57.3899284669231 -6.71097389897926 3.551060332313874 -5.964353637221965 1.9878466759146977e-16 -5.963540027744094e-16 -5.404458150143085e-15 -6.772351825660642 -20.219084743047624 -46.32455164953776 10.63548069713059 -8.433558308850229 -16.27751712442712 -3.975693351829397e-16 -5.819114748405971e-33 1.6772456328030267e-15
-3.1394500732421875 8.013100624084473 -354.6891784667969 -2.3426097280738762 36.16308452867884 15.410299063480501 -8.090306113515691e-08 1.496389454986797e-06 168.9903179461765 -80.4683979737714 -16.441997473905758 2.9230666909093035 -1.1249153576051097e-06 -5.322421399366019e-06 22.253497807243473 -3.9756933518293955e-16 -3.1805546814635164e-15 -1.1034765745125397e-32 68.40625698892077 -8.17076333722665 -69.36374630883392 1.5311199918040384e-06 -2.516029091325843e-06 -133.68157919852248 6.3611093629270335e-15 3.1805546814635168e-15 -1.7655625192200634e-31 0.5318887799568324 -26.09831063264614 56.29105174383049 -9.035962741670016 1.6683483466517626 -2.8999672761918607 -1.9878466759146985e-16 9.245926766911709e-33 -5.329913899796285e-15 -6.084934148752523 -21.13639651076711 -48.6971062554815 10.388099506025855 -5.6352995716861844 -10.920433203528104 -3.975693351829395e-16 -7.951386703658791e-16 4.50992714598147e-15
-2.8661370277404785 8.21084976196289 -354.5857849121094 -2.9968854470215174 34.57421153503993 12.988339687637016 2.920684584361769e-07 -4.772591574658213e-07 171.30753645340997 -82.04515962577409 -13.845091470789736 4.7820717237248624 -1.0338715239412405e-06 5.346900747777894e-07 17.784611472659112 -2.1866313435061676e-15 0.0 0.0 67.10993330064507 -8.93478488001094 -67.7601949707148 -3.0039505592514225e-06 -2.8225141292626844e-06 -131.88858282590166 0.0 3.1805546814635176e-15 0.0 2.7317759183058454 -22.119936321967657 52.9063581756878 -13.115262317463461 -0.6930135445393056 1.17598155151788 -1.584065319869525e-16 -2.3989246880082953e-33 1.7353862655604924e-15 -2.984466008823521 -19.80720260219556 -41.7709964395016 9.513851685246182 -8.238202003855768 -15.878791501864658 1.9878466759146985e-16 -2.981770013872048e-16 -2.9258618261119466e-15
-2.140373945236206 7.523742198944092 -355.041015625 -8.542217933974236 31.725283334274668 12.252648121306194 1.3382487570148396e-07 -1.136555805043175e-06 174.35813972563892 -88.49156409923175 -12.308379886030314 3.0856760105978336 2.2753356356606628e-07 -2.934635740228435e-06 18.152733330015998 -9.243487043003344e-15 -1.5902773407317584e-15 1.590277340731758e-15 58.915044342696795 -12.123477936229937 -62.10421336511587 3.789288491525794e-06 5.396768669517321e-07 -132.68571193432044 -6.361109362927032e-15 3.180554681463516e-15 1.7655625192200634e-31 8.135351444562621 -20.838484075379444 44.8418802845037 -8.360809818068606 -1.8300029620520049 3.889794013026166 1.2672738785417446e-32 -7.951386703658792e-16 1.8263341334966286e-15 1.9456793598961801 -21.469074430510226 -41.57526335762188 0.3327682175248048 5.067688518605887 14.060322534423317 -1.987846675914698e-16 -1.2069275033730902e-33 6.957463365701443e-16
-2.9028990268707275 10.673840522766113 -353.4162902832031 0.4503713642739282 29.855186296130498 5.767635317108156 -2.6953382685238295e-08 7.910934851280585e-08 175.2205738881542 -81.28754492723252 -13.301967703757768 2.567149771229726 -1.6264371613168357e-06 2.3814910340213668e-08 18.80354860196483 4.572047354603806e-15 1.5902773407317588e-15 -3.1805546814635176e-15 65.38807898865525 -15.353796288704931 -52.102703462748046 -3.506642920389642e-07 -5.866809154897128e-06 -143.06792784944938 0.0 1.9878466759146977e-16 0.0 1.462099722392014 -16.348938353851505 40.156391736287375 -9.225508552146906 -3.5198553370657177 7.742159452506264 -3.9756933518293955e-16 9.939233379573487e-17 3.3420672238815853e-15 -4.894241512949309 -17.64159312005585 -45.61299095086884 6.471238134603092 -2.2793796787038128 -5.605940418939581 1.1799871573156552e-33 -4.969616689786745e-17 2.7208651376582428e-15
-2.902108907699585 11.373849868774414 -353.39501953125 0.47384603283690335 27.807486358145827 4.474594473551212 -1.434620346089828e-07 -2.5319569752354726e-06 177.68467922631794 -81.0963943627803 -15.172717772868195 2.025446694655333 2.244003667380392e-07 -9.343441989864615e-07 20.00380492878045 -3.1805546814635168e-15 1.3241718894150476e-31 -4.770832022195275e-15 33.314431860834375 -44.479494925776066 -63.558722031763615 4.416776620861452e-06 -6.6352956198049415e-06 -148.12148491092717 0.0 0.0 6.3611093629270335e-15 1.5577640579849672 -13.058342716672954 28.646692057298363 -8.004878238709177 -6.969783655186012 17.094785409065572 -3.9756933518293955e-16 -9.939233379573489e-17 2.484808344893372e-16 -5.482276018973024 -15.435968635556597 -42.57838707567467 7.94867270733846 -0.9739925795255625 -2.5054262187363125 -9.93923337957349e-17 -7.951386703658792e-16 3.564146969706431e-16
-2.8512649536132812 11.840950012207031 -353.37158203125 -0.40677333671789173 26.43613496487805 3.045086950063407 5.139812331070979e-08 9.336115173719363e-07 179.47686767485993 -81.83708127868721 -17.402035130974053 2.3134792284798604 -2.7075316102346235e-06 2.621041777757897e-06 20.35514553488718 7.951386703658791e-16 0.0 0.0 56.277872592251285 -32.96114503080619 -48.31310079284034 -2.2379178555192205e-06 -3.3521028496103958e-06 -150.61865980840983 0.0 0.0 3.1805546814635168e-15 3.4283888376479124 -10.352548505638685 17.34668754413719 -7.0962062424238725 -9.321092737304042 26.39299400204543 7.951386703658792e-16 -9.939233379573489e-17 1.2051320472732857e-15 -3.5438850273242855 -13.512376377909169 -29.53740290942269 7.5672440803078205 -3.2662907135834693 -8.606522108923746 9.939233379573487e-17 -7.951386703658792e-16 -2.3931810371754293e-15
